<svg width="1595" height="1180" viewBox="0 0 1595 1180" fill="none" xmlns="http://www.w3.org/2000/svg">
<path d="M68 991.005V1H1580V991.005C1483.2 1082.64 1242.57 1114.21 854.914 991.005C500.803 878.459 185.413 899.375 68 991.005Z" fill="#1B1C37" stroke="black"/>
<path d="M83.504 1L83.5039 1179.38M268.722 1L268.722 1179.38M453.939 1L453.939 1179.38M639.157 1L639.157 1179.38M824.375 1L824.375 1179.38M1009.59 1L1009.59 1179.38M1194.81 1L1194.81 1179.38M1380.03 1L1380.03 1179.38M1565.25 1L1565.25 1179.38M83 1146.43H1564.74M83 961.043L1564.74 961.043M83 775.654L1564.74 775.654M83 590.265L1564.74 590.265M83 404.876L1564.74 404.876M83 219.487L1564.74 219.487M83 34.0973L1564.74 34.0974" stroke="url(#paint0_radial_823_275)" stroke-opacity="0.3"/>
<ellipse cx="10.3943" cy="254.093" rx="10.3943" ry="10.0912" fill="#EDEEFF"/>
<ellipse cx="46.626" cy="254.093" rx="10.3943" ry="10.0912" fill="#EDEEFF"/>
<ellipse cx="82.2637" cy="254.093" rx="10.3943" ry="10.0912" fill="#EDEEFF"/>
<ellipse cx="119.089" cy="254.093" rx="10.3943" ry="10.0912" fill="#EDEEFF"/>
<ellipse cx="154.727" cy="254.093" rx="10.3943" ry="10.0912" fill="#EDEEFF"/>
<ellipse cx="10.3943" cy="283.501" rx="10.3943" ry="10.0912" fill="#EDEEFF"/>
<ellipse cx="46.626" cy="283.501" rx="10.3943" ry="10.0912" fill="#EDEEFF"/>
<ellipse cx="82.2637" cy="283.501" rx="10.3943" ry="10.0912" fill="#EDEEFF"/>
<ellipse cx="119.089" cy="283.501" rx="10.3943" ry="10.0912" fill="#EDEEFF"/>
<ellipse cx="154.727" cy="283.501" rx="10.3943" ry="10.0912" fill="#EDEEFF"/>
<ellipse cx="10.3943" cy="312.91" rx="10.3943" ry="10.0912" fill="#EDEEFF"/>
<ellipse cx="46.626" cy="312.91" rx="10.3943" ry="10.0912" fill="#EDEEFF"/>
<ellipse cx="82.2637" cy="312.91" rx="10.3943" ry="10.0912" fill="#EDEEFF"/>
<ellipse cx="119.089" cy="312.91" rx="10.3943" ry="10.0912" fill="#EDEEFF"/>
<ellipse cx="154.727" cy="312.91" rx="10.3943" ry="10.0912" fill="#EDEEFF"/>
<ellipse cx="1407.58" cy="841.214" rx="12.579" ry="12.2122" fill="#EDEEFF"/>
<ellipse cx="1451.43" cy="841.214" rx="12.579" ry="12.2122" fill="#EDEEFF"/>
<ellipse cx="1494.55" cy="841.214" rx="12.579" ry="12.2122" fill="#EDEEFF"/>
<ellipse cx="1539.12" cy="841.214" rx="12.579" ry="12.2122" fill="#EDEEFF"/>
<ellipse cx="1582.25" cy="841.214" rx="12.579" ry="12.2122" fill="#EDEEFF"/>
<ellipse cx="1407.58" cy="876.804" rx="12.579" ry="12.2122" fill="#EDEEFF"/>
<ellipse cx="1451.43" cy="876.804" rx="12.579" ry="12.2122" fill="#EDEEFF"/>
<ellipse cx="1494.55" cy="876.804" rx="12.579" ry="12.2122" fill="#EDEEFF"/>
<ellipse cx="1539.12" cy="876.804" rx="12.579" ry="12.2122" fill="#EDEEFF"/>
<ellipse cx="1582.25" cy="876.804" rx="12.579" ry="12.2122" fill="#EDEEFF"/>
<ellipse cx="1407.58" cy="912.393" rx="12.579" ry="12.2122" fill="#EDEEFF"/>
<ellipse cx="1451.43" cy="912.394" rx="12.579" ry="12.2122" fill="#EDEEFF"/>
<ellipse cx="1494.55" cy="912.394" rx="12.579" ry="12.2122" fill="#EDEEFF"/>
<ellipse cx="1539.12" cy="912.394" rx="12.579" ry="12.2122" fill="#EDEEFF"/>
<ellipse cx="1582.25" cy="912.394" rx="12.579" ry="12.2122" fill="#EDEEFF"/>
<defs>
<radialGradient id="paint0_radial_823_275" cx="0" cy="0" r="1" gradientUnits="userSpaceOnUse" gradientTransform="translate(824.123 590.19) rotate(90) scale(589.19 741.123)">
<stop stop-color="white"/>
<stop offset="1" stop-color="white" stop-opacity="0"/>
</radialGradient>
</defs>
</svg>
